<svg xmlns="http://www.w3.org/2000/svg" xmlns:xlink="http://www.w3.org/1999/xlink" version="1.1" x="0px" y="0px" viewBox="4.092750072479248 4.09274959564209 91.81350708007812 91.81350708007812" enable-background="new 0 0 100 100" xml:space="preserve" preserveAspectRatio="xMidYMid meet" style="width: 100%; height: 100%;" fill="rgb(0,0,0)" fill-opacity="1"><path d="M38.548,46.201c3.831-0.378,7.275-3.821,7.653-7.653l3.112-31.582c0.378-3.831,0.995-3.831,1.373,0l3.112,31.582  c0.378,3.831,3.821,7.275,7.653,7.653l31.582,3.112c3.831,0.378,3.831,0.995,0,1.373l-31.582,3.112  c-3.831,0.378-7.275,3.821-7.653,7.653l-3.112,31.582c-0.378,3.831-0.995,3.831-1.373,0l-3.112-31.582  c-0.378-3.831-3.821-7.275-7.653-7.653L6.966,50.686c-3.831-0.378-3.831-0.995,0-1.373L38.548,46.201z"/></svg>